<svg xmlns="http://www.w3.org/2000/svg" width="35" height="32" viewBox="0 0 35 32">
  <defs>
    <style>
      .cls-1 {
        fill: #9b1e23;
        fill-rule: evenodd;
      }
    </style>
  </defs>
  <path id="buildings" class="cls-1" d="M424.487,1053.96h-4.129v-9.36h0.062a0.52,0.52,0,0,0,0-1.04h-0.062v-8.95a1.014,1.014,0,0,0-1-1.02h-0.889v-0.72a0.513,0.513,0,1,0-1.026,0v0.72h-3.008v-6.43h0v-3.14a1.014,1.014,0,0,0-1-1.02h-4.8a0.52,0.52,0,0,0,0,1.04h4.779v2.6h-8.694v-2.6h1.865a0.52,0.52,0,0,0,0-1.04h-1.887a1.015,1.015,0,0,0-1,1.02v2.62h-8.042a1.015,1.015,0,0,0-1,1.02v10.4a0.513,0.513,0,1,0,1.026,0v-3.43H398v8.93h-2.33v-3.42a0.513,0.513,0,1,0-1.026,0v3.42H394.58a0.52,0.52,0,0,0,0,1.04h0.061v9.36h-4.129a0.52,0.52,0,0,0,0,1.04h33.975A0.52,0.52,0,0,0,424.487,1053.96Zm-5.154-13.4H412.9v-0.94h6.438v0.94Zm0-1.98h-6.951a0.514,0.514,0,0,0-.512.52v1.98a0.521,0.521,0,0,0,.512.52h6.951v1.96H409.091v-8.93h10.242v3.95Zm-16.954,4.98v-8.93h2.331v8.93h-2.331Zm-4.367-9.97v-5.91h1.321v5.91h-1.321Zm2.346-5.91h1.32v5.91h-1.32v-5.91Zm9.383,5.91v-5.91h1.32v5.91h-1.32Zm-1.026,0H407.4v-5.91h1.32v5.91Zm-2.345,0h-1.321v-5.91h1.321v5.91Zm-2.346-5.91v5.91H402.7v-5.91h1.32Zm1.711,6.95h2.331v8.93h-2.331v-8.93Zm7.671-1.04h-1.32v-5.91h1.32v5.91Zm-17.739-5.91h1.32v5.91h-1.32v-5.91Zm3.356,6.95h2.331v8.93h-2.331v-8.93Zm-0.415,19.33v-2.8a0.039,0.039,0,0,1,.035-0.04h5.792a0.039,0.039,0,0,1,.035.04v2.8h-5.862Zm6.887,0v-2.8a1.068,1.068,0,0,0-1.06-1.08h-5.792a1.069,1.069,0,0,0-1.061,1.08v2.8h-1.915v-9.36h23.666v9.36H405.5Zm11.639-8.1h-9.5a1.017,1.017,0,0,0-1.008,1.02v3.22a1.017,1.017,0,0,0,1.008,1.02h3.726a0.52,0.52,0,0,0,0-1.04h-3.709v-3.18h9.469v3.18h-3.71a0.52,0.52,0,0,0,0,1.04h3.727a1.017,1.017,0,0,0,1.008-1.02v-3.22A1.017,1.017,0,0,0,417.134,1045.86Z" transform="translate(-390 -1023)"/>
</svg>
