<svg xmlns="http://www.w3.org/2000/svg" width="27" height="35.03" viewBox="0 0 27 35.03">
  <defs>
    <style>
      .cls-1 {
        fill: #9b1e23;
        fill-rule: evenodd;
      }
    </style>
  </defs>
  <path id="business" class="cls-1" d="M419.359,1255.39l-5.316-8.2a2.31,2.31,0,0,0-.22-4.22l1.61-5.54a0.675,0.675,0,0,0-.176-0.67,2.791,2.791,0,0,0-3.886,0,1.377,1.377,0,0,1-1.92,0l0-.01a2.782,2.782,0,0,0-3.879,0l-0.02.02a1.37,1.37,0,0,1-1.915-.01h0a2.791,2.791,0,0,0-3.886,0,0.675,0.675,0,0,0-.176.67l1.613,5.54a2.309,2.309,0,0,0-.223,4.22l-5.316,8.2a9.887,9.887,0,0,0-.348,10.34,10.2,10.2,0,0,0,9.042,5.27h6.33a10.2,10.2,0,0,0,9.042-5.27,9.889,9.889,0,0,0-.348-10.34h0Zm-16.714-17.66h0a2.782,2.782,0,0,0,3.879.01l0.02-.02a1.373,1.373,0,0,1,1.917,0l0,0.01a2.791,2.791,0,0,0,3.886,0,1.371,1.371,0,0,1,1.612-.23l-1.542,5.31h-9.846l-1.546-5.31a1.372,1.372,0,0,1,1.612.23h0Zm15.843,27.34a8.819,8.819,0,0,1-7.823,4.56h-6.33a8.819,8.819,0,0,1-7.823-4.56,8.545,8.545,0,0,1,.3-8.94l5.62-8.67h1.937a0.685,0.685,0,1,0,0-1.37h-2.318a0.96,0.96,0,1,1,0-1.92h10.894a0.96,0.96,0,1,1,0,1.92h-2.318a0.685,0.685,0,1,0,0,1.37h1.937l5.62,8.67a8.545,8.545,0,0,1,.3,8.94h0Zm-9.762-6.76c-0.175-.06-0.353-0.12-0.531-0.19v-3.1a2.929,2.929,0,0,1,.8.37,0.7,0.7,0,0,0,.971-0.13,0.677,0.677,0,0,0-.134-0.96,4.155,4.155,0,0,0-1.637-.68v-0.69a0.7,0.7,0,0,0-1.39,0v0.68a2.449,2.449,0,0,0-.359.09,2.753,2.753,0,0,0-1.909,2.15,2.4,2.4,0,0,0,.8,2.38,7.113,7.113,0,0,0,1.464.82v3.96a2.724,2.724,0,0,1-1.525-.55,0.716,0.716,0,0,0-.963.2,0.681,0.681,0,0,0,.2.95,4.1,4.1,0,0,0,2.286.77v0.71a0.7,0.7,0,0,0,1.39,0v-0.78a3.317,3.317,0,0,0,2.556-2.68,2.9,2.9,0,0,0-2.025-3.32h0Zm-2.526-1.16a1.056,1.056,0,0,1-.3-1.05,1.393,1.393,0,0,1,.9-1.08v2.51A4.268,4.268,0,0,1,406.2,1257.15Zm3.179,4.25a1.965,1.965,0,0,1-1.184,1.48v-3.3a0.172,0.172,0,0,0,.067.02A1.552,1.552,0,0,1,409.379,1261.4Zm-1.879-13.94a0.7,0.7,0,0,0,.492-0.2,0.681,0.681,0,0,0,.2-0.48,0.7,0.7,0,0,0-.2-0.49,0.705,0.705,0,0,0-.984,0,0.7,0.7,0,0,0-.2.49,0.681,0.681,0,0,0,.2.48,0.7,0.7,0,0,0,.492.2h0Z" transform="translate(-394 -1235.97)"/>
</svg>
