<svg xmlns="http://www.w3.org/2000/svg" width="35" height="15" viewBox="0 0 35 15">
  <defs>
    <style>
      .cls-1 {
        fill: #9b1e23;
        fill-rule: evenodd;
      }
    </style>
  </defs>
  <path id="cars" class="cls-1" d="M404.583,963.624h2.334v1.251h-2.334v-1.251Zm19.917-1.869-3.962-.606a19.63,19.63,0,0,0-2.246-1.275A18.533,18.533,0,0,0,410.165,958h-0.689a18.793,18.793,0,0,0-9.468,2.587l-2,1.169a13.079,13.079,0,0,0-6.671,1.938,2.894,2.894,0,0,0-1.338,2.47v3.712a0.6,0.6,0,0,0,.583.625h1.959a3.434,3.434,0,0,0,4.445,2.291,3.624,3.624,0,0,0,2.137-2.291h15.585a3.434,3.434,0,0,0,4.445,2.291,3.624,3.624,0,0,0,2.137-2.291H421.5a0.557,0.557,0,0,0,.217-0.044l1.89-.813A2.368,2.368,0,0,0,425,967.437v-5.063A0.614,0.614,0,0,0,424.5,961.755Zm-26.381,8a2.342,2.342,0,0,1-2.753,1.949,2.5,2.5,0,0,1-1.819-2.95A2.343,2.343,0,0,1,396.3,966.8a2.465,2.465,0,0,1,1.866,2.45A2.615,2.615,0,0,1,398.119,969.75Zm10.548-.5h-9.334a3.508,3.508,0,1,0-7,0h-1.167v-3.087a1.624,1.624,0,0,1,.751-1.385,11.97,11.97,0,0,1,6.25-1.779h10.5v6.251Zm0-7.5h-8.212l0.112-.066a17.721,17.721,0,0,1,8.1-2.407v2.473Zm1.167-2.5h0.33a17.38,17.38,0,0,1,6.864,1.409l-1.019,1.091h-6.175v-2.5Zm10.453,10.5a2.343,2.343,0,0,1-2.754,1.949,2.5,2.5,0,0,1-1.819-2.95,2.343,2.343,0,0,1,2.754-1.949,2.465,2.465,0,0,1,1.866,2.45A2.7,2.7,0,0,1,420.287,969.75Zm3.547-6.126h-1.75v1.251h1.75v2.562a1.123,1.123,0,0,1-.66,1.045l-1.674.72c0-.058-0.006-0.115-0.01-0.172s0-.125-0.01-0.188-0.018-.125-0.027-0.187-0.017-.125-0.028-0.182-0.029-.12-0.044-0.179-0.027-.12-0.045-0.178-0.038-.114-0.058-0.171-0.038-.115-0.058-0.172-0.048-.107-0.073-0.16-0.048-.111-0.075-0.165-0.059-.1-0.085-0.149-0.058-.107-0.091-0.159-0.065-.091-0.1-0.138-0.068-.1-0.1-0.149-0.072-.085-0.109-0.125-0.076-.092-0.116-0.136-0.08-.078-0.12-0.117-0.084-.084-0.128-0.125-0.09-.072-0.134-0.107-0.089-.074-0.135-0.107-0.1-.063-0.149-0.1-0.092-.062-0.139-0.089-0.106-.055-0.16-0.083-0.1-.052-0.145-0.074-0.117-.046-0.175-0.069-0.1-.04-0.146-0.057c-0.066-.021-0.134-0.037-0.2-0.055-0.045-.011-0.087-0.026-0.132-0.036-0.072-.016-0.145-0.025-0.218-0.036-0.043-.006-0.085-0.017-0.128-0.021A3.43,3.43,0,0,0,418,965.5a3.635,3.635,0,0,0-3.5,3.75h-4.668V963h6.416a0.565,0.565,0,0,0,.413-0.183l1.512-1.621a18.467,18.467,0,0,1,1.85,1.084,0.558,0.558,0,0,0,.226.089l3.583,0.548v0.708Z" transform="translate(-390 -958)"/>
</svg>
