<svg xmlns="http://www.w3.org/2000/svg" width="35" height="35" viewBox="0 0 35 35">
  <defs>
    <style>
      .cls-1 {
        fill: #9b1e23;
        fill-rule: evenodd;
      }
    </style>
  </defs>
  <path id="land" class="cls-1" d="M405.765,1384.78a4.786,4.786,0,1,0,4.786-4.78A4.794,4.794,0,0,0,405.765,1384.78Zm4.786-3.41a3.415,3.415,0,1,1-3.418,3.41A3.418,3.418,0,0,1,410.551,1381.37Zm-18.868,5.19a0.687,0.687,0,0,0-.683.69v27.07a0.685,0.685,0,0,0,.683.68h33.633a0.685,0.685,0,0,0,.684-0.68v-27.07a0.688,0.688,0,0,0-.684-0.69c-5.4,0-8.214,2.71-10.933,5.32-0.271.26-.55,0.53-0.829,0.79C410.416,1392.46,395.814,1386.56,391.683,1386.56Zm20.482,7.35a11.38,11.38,0,0,1-7.767,2.91H392.367v-8.88C395.889,1388.04,409.486,1393.59,412.165,1393.91Zm12.468,10.11-4.26-5.84h4.26v5.84Zm-9.3-11.15c2.513-2.42,4.894-4.71,9.3-4.92v8.87H410.3A21.916,21.916,0,0,0,415.331,1392.87Zm-2.124,20.76-1.884-15.45h2.992l5.777,15.45h-6.885Zm-16.3,0,5.778-15.45h2.992l-1.884,15.45h-6.886Zm10.147-15.45h2.891l1.884,15.45H405.17Zm-14.687,0h4.26l-4.26,5.84v-5.84Zm0,8.16,5.953-8.16h2.905l-5.777,15.45h-3.081v-7.29Zm29.185,7.29-5.778-15.45h2.906l5.953,8.16v7.29h-3.081Z" transform="translate(-391 -1380)"/>
</svg>
