<svg xmlns="http://www.w3.org/2000/svg" width="19.03" height="19.031" viewBox="0 0 19.03 19.031">
  <defs>
    <style>
      .cls-1 {
        fill: #9b1e22;
        fill-rule: evenodd;
      }
    </style>
  </defs>
  <path id="instagram" class="cls-1" d="M1455.5,137.628a4.871,4.871,0,1,0,4.87,4.871A4.867,4.867,0,0,0,1455.5,137.628Zm0,8.038a3.167,3.167,0,1,1,3.17-3.167,3.168,3.168,0,0,1-3.17,3.167h0Zm6.21-8.237a1.14,1.14,0,1,1-1.14-1.136A1.135,1.135,0,0,1,1461.71,137.429Zm3.22,1.153a5.255,5.255,0,0,0-5.51-5.516c-1.57-.089-6.27-0.089-7.84,0a5.249,5.249,0,0,0-5.51,5.512c-0.09,1.568-.09,6.27,0,7.838a5.255,5.255,0,0,0,5.51,5.516c1.57,0.089,6.27.089,7.84,0a5.255,5.255,0,0,0,5.51-5.516c0.09-1.568.09-6.266,0-7.834h0Zm-2.02,9.517a3.2,3.2,0,0,1-1.81,1.807c-1.25.5-4.22,0.381-5.6,0.381s-4.35.11-5.6-.381a3.185,3.185,0,0,1-1.8-1.807c-0.5-1.25-.38-4.218-0.38-5.6s-0.12-4.354.38-5.6a3.209,3.209,0,0,1,1.8-1.806c1.25-.5,4.22-0.382,5.6-0.382s4.35-.11,5.6.382a3.229,3.229,0,0,1,1.81,1.806c0.49,1.25.38,4.218,0.38,5.6S1463.4,146.853,1462.91,148.1Z" transform="translate(-1446 -133)"/>
</svg>
