<svg xmlns="http://www.w3.org/2000/svg" width="35" height="35" viewBox="0 0 35 35">
  <defs>
    <style>
      .cls-1 {
        fill: #9b1e23;
        fill-rule: evenodd;
      }
    </style>
  </defs>
  <path id="appartment" class="cls-1" d="M425,895.323a6.275,6.275,0,0,1-8.384,5.908v3.941a2.8,2.8,0,0,1,1.933,4.583,0.685,0.685,0,0,1-.524.245H391.23a0.683,0.683,0,0,1-.683-0.684V879.088a0.685,0.685,0,0,1-.547-0.67v-2.735a0.683,0.683,0,0,1,.684-0.683h21.054a0.683,0.683,0,0,1,.684.683v2.735a0.685,0.685,0,0,1-.547.67v3.276a6.276,6.276,0,0,1,9.761,7.4A6.31,6.31,0,0,1,425,895.323Zm-13.945-18.956H391.367v1.367h6.745a0.684,0.684,0,1,1,0,1.367h-6.2v29.532h14.915a2.784,2.784,0,0,1,.459-2.325h-1.839a0.683,0.683,0,0,1-.683-0.683V901.8a0.683,0.683,0,0,1,.683-0.684h3.008a0.684,0.684,0,0,1,.684.684v3.4l0.1-.014a3.756,3.756,0,0,1,1.264-1.288V879.1h-6.244a0.684,0.684,0,1,1,0-1.367h6.791v-1.367Zm-3.282,28.574V902.48h-1.64v2.461h1.64Zm2.521,1.184a0.684,0.684,0,0,1-.666.409c-0.028,0-.057,0-0.085,0a1.43,1.43,0,0,0-1.261,2.1h9.384a1.43,1.43,0,0,0-1.958-1.921,0.683,0.683,0,0,1-.983-0.381A2.375,2.375,0,0,0,410.294,906.125Zm4.955-1.556v-3.338a6.272,6.272,0,0,1-3.374.236v1.916a3.665,3.665,0,0,1,.6-0.048A3.735,3.735,0,0,1,415.249,904.569Zm5.2-13.841a0.684,0.684,0,0,1-.342-1,4.906,4.906,0,0,0-8.232-5.335v15.67a4.912,4.912,0,0,0,3.374-.312v-2.6h0v-3l-1.533-1.532a0.684,0.684,0,0,1,.967-0.967l0.566,0.566v-3.249a0.684,0.684,0,1,1,1.367,0v4.9h0v1.63l2.136-2.136a0.683,0.683,0,0,1,.967.966l-3.1,3.1v2.32A4.907,4.907,0,1,0,420.449,890.728Zm-17.734,15.58h-3.008a0.683,0.683,0,0,1-.684-0.683V901.8a0.684,0.684,0,0,1,.684-0.684h3.008a0.683,0.683,0,0,1,.683.684v3.828A0.683,0.683,0,0,1,402.715,906.308Zm-0.684-3.828h-1.64v2.461h1.64V902.48Zm0.684-2.734h-3.008a0.684,0.684,0,0,1-.684-0.684v-3.828a0.683,0.683,0,0,1,.684-0.683h3.008a0.683,0.683,0,0,1,.683.683v3.828A0.683,0.683,0,0,1,402.715,899.746Zm-0.684-3.828h-1.64v2.461h1.64v-2.461Zm0.684-2.735h-3.008a0.683,0.683,0,0,1-.684-0.683v-3.828a0.684,0.684,0,0,1,.684-0.684h3.008a0.683,0.683,0,0,1,.683.684V892.5A0.683,0.683,0,0,1,402.715,893.183Zm-0.684-3.828h-1.64v2.461h1.64v-2.461Zm0.684-2.734h-3.008a0.684,0.684,0,0,1-.684-0.684v-3.828a0.683,0.683,0,0,1,.684-0.683h3.008a0.683,0.683,0,0,1,.683.683v3.828A0.683,0.683,0,0,1,402.715,886.621Zm-0.684-3.828h-1.64v2.461h1.64v-2.461Zm-0.843-3.692a0.685,0.685,0,1,1,.483-0.2A0.686,0.686,0,0,1,401.188,879.1Zm-4.215,27.207h-3.008a0.683,0.683,0,0,1-.684-0.683V901.8a0.684,0.684,0,0,1,.684-0.684h3.008a0.683,0.683,0,0,1,.683.684v3.828A0.683,0.683,0,0,1,396.973,906.308Zm-0.684-3.828h-1.641v2.461h1.641V902.48Zm0.684-2.734h-3.008a0.684,0.684,0,0,1-.684-0.684v-3.828a0.683,0.683,0,0,1,.684-0.683h3.008a0.683,0.683,0,0,1,.683.683v3.828A0.683,0.683,0,0,1,396.973,899.746Zm-0.684-3.828h-1.641v2.461h1.641v-2.461Zm0.684-2.735h-3.008a0.683,0.683,0,0,1-.684-0.683v-3.828a0.684,0.684,0,0,1,.684-0.684h3.008a0.683,0.683,0,0,1,.683.684V892.5A0.683,0.683,0,0,1,396.973,893.183Zm-0.684-3.828h-1.641v2.461h1.641v-2.461Zm0.684-2.734h-3.008a0.684,0.684,0,0,1-.684-0.684v-3.828a0.683,0.683,0,0,1,.684-0.683h3.008a0.683,0.683,0,0,1,.683.683v3.828A0.683,0.683,0,0,1,396.973,886.621Zm-0.684-3.828h-1.641v2.461h1.641v-2.461Zm9.16-1.367h3.008a0.684,0.684,0,0,1,.684.683v3.828a0.684,0.684,0,0,1-.684.684h-3.008a0.683,0.683,0,0,1-.683-0.684v-3.828A0.683,0.683,0,0,1,405.449,881.426Zm0.684,3.828h1.64v-2.461h-1.64v2.461Zm-0.684,2.734h3.008a0.684,0.684,0,0,1,.684.684V892.5a0.684,0.684,0,0,1-.684.683h-3.008a0.683,0.683,0,0,1-.683-0.683v-3.828A0.683,0.683,0,0,1,405.449,887.988Zm0.684,3.828h1.64v-2.461h-1.64v2.461Zm-0.684,2.735h3.008a0.684,0.684,0,0,1,.684.683v3.828a0.684,0.684,0,0,1-.684.684h-3.008a0.683,0.683,0,0,1-.683-0.684v-3.828A0.683,0.683,0,0,1,405.449,894.551Zm0.684,3.828h1.64v-2.461h-1.64v2.461Z" transform="translate(-390 -875)"/>
</svg>
