<svg xmlns="http://www.w3.org/2000/svg" width="35" height="29" viewBox="0 0 35 29">
  <defs>
    <style>
      .cls-1 {
        fill: #9b1e23;
        fill-rule: evenodd;
      }
    </style>
  </defs>
  <path id="garages" class="cls-1" d="M424.556,1102.54l-13.7-5.29h0l-3.108-1.2a0.7,0.7,0,0,0-.246-0.05h-0.009a0.7,0.7,0,0,0-.245.05l-3.108,1.2h0l-13.7,5.29a0.7,0.7,0,0,0-.432.78,0.691,0.691,0,0,0,.677.57H391.6v17.98a3.118,3.118,0,0,0,3.091,3.13h25.615a3.118,3.118,0,0,0,3.091-3.13v-17.98h0.913a0.69,0.69,0,0,0,.677-0.57A0.7,0.7,0,0,0,424.556,1102.54Zm-7.34,21.06H397.781v-5.1h19.435v5.1Zm0-6.49H397.781v-1.85h19.435v1.85Zm0-3.25H397.781v-1.85h19.435v1.85Zm0-3.25H397.781v-1.85h19.435v1.85Zm4.807-7.47c0,0.02,0,.04,0,0.05v18.68a1.727,1.727,0,0,1-1.715,1.73h-1.714v-15.54a0.69,0.69,0,0,0-.688-0.69H397.093a0.69,0.69,0,0,0-.688.69v15.54h-1.714a1.727,1.727,0,0,1-1.714-1.73v-18.68c0-.01,0-0.03,0-0.05l-0.007-.08,14.531-5.61,14.53,5.61Z" transform="translate(-390 -1096)"/>
</svg>
