<svg xmlns="http://www.w3.org/2000/svg" width="35" height="32" viewBox="0 0 35 32">
  <defs>
    <style>
      .cls-1 {
        fill: #9b1e23;
        fill-rule: evenodd;
      }
    </style>
  </defs>
  <path id="houses" class="cls-1" d="M423.8,814.849h-0.334l-3.133-8.592A1.9,1.9,0,0,0,418.555,805h-22.11a1.9,1.9,0,0,0-1.775,1.257l-3.133,8.592H391.2a1.216,1.216,0,0,0-1.2,1.226v0.985a1.216,1.216,0,0,0,1.2,1.226h0.178v11.449a0.513,0.513,0,1,0,1.025,0V818.286h8.05a1.663,1.663,0,0,0,1.193-.5l5.851-5.962,5.851,5.962a1.661,1.661,0,0,0,1.192.5h8.05v1.385a0.513,0.513,0,1,0,1.026,0v-1.385H423.8a1.216,1.216,0,0,0,1.2-1.226v-0.985a1.216,1.216,0,0,0-1.2-1.226h0Zm-28.166-8.228a0.872,0.872,0,0,1,.814-0.577h22.11a0.873,0.873,0,0,1,.814.577l3,8.228h-7.127l-6.549-6.673a1.666,1.666,0,0,0-2.386,0l-6.549,6.673h-7.127Zm28.343,10.439a0.179,0.179,0,0,1-.177.181h-9.254a0.651,0.651,0,0,1-.467-0.2l-6.214-6.331a0.506,0.506,0,0,0-.725,0l-6.213,6.331a0.652,0.652,0,0,1-.468.2H391.2a0.18,0.18,0,0,1-.178-0.181v-0.985a0.18,0.18,0,0,1,.178-0.181h8.767a0.51,0.51,0,0,0,.363-0.153l6.7-6.826a0.653,0.653,0,0,1,.935,0l6.7,6.826a0.509,0.509,0,0,0,.363.153H423.8a0.18,0.18,0,0,1,.178.181v0.985h0Zm-3.147,15.719a0.518,0.518,0,0,0,.513-0.523V822.97a0.518,0.518,0,0,0-.513-0.523h-6.9a0.518,0.518,0,0,0-.513.523v9.286a0.518,0.518,0,0,0,.513.523h6.9Zm-0.512-3.3h-2.428V827.01h2.428v2.472Zm-3.453,0h-2.427V827.01h2.427v2.472Zm3.453,2.252h-5.88v-1.207h5.88v1.207Zm0-5.769h-2.428v-2.473h2.428v2.473Zm-3.453-2.473v2.473h-2.427v-2.473h2.427Zm-15.784,9.287a0.517,0.517,0,0,0,.512-0.523V822.97a0.517,0.517,0,0,0-.512-0.523h-6.906a0.517,0.517,0,0,0-.512.523v9.286a0.517,0.517,0,0,0,.512.523h6.906Zm-0.513-3.3h-2.427V827.01h2.427v2.472Zm-3.453,0h-2.427V827.01h2.427v2.472Zm3.453,2.252h-5.88v-1.207h5.88v1.207Zm0-5.769h-2.427v-2.473h2.427v2.473Zm-3.453-2.473v2.473h-2.427v-2.473h2.427Zm12.045,1.207h-3.314a0.517,0.517,0,0,0-.513.522v2.251a0.518,0.518,0,0,0,.513.523h3.314a0.518,0.518,0,0,0,.513-0.523v-2.251A0.517,0.517,0,0,0,409.157,824.7Zm-0.513,2.251h-2.289v-1.207h2.289v1.207Zm1.578-8.835a2.723,2.723,0,1,0-2.722,2.774A2.751,2.751,0,0,0,410.222,818.115Zm-4.419,0a1.7,1.7,0,1,1,1.7,1.729,1.715,1.715,0,0,1-1.7-1.729h0Zm18.684,15.448h-0.868V822.114a0.513,0.513,0,1,0-1.026,0v11.449H411.88V822.97a0.518,0.518,0,0,0-.513-0.523h-7.734a0.518,0.518,0,0,0-.513.523v10.593H392.406v-1.385a0.513,0.513,0,1,0-1.025,0v1.385h-0.869a0.517,0.517,0,0,0-.512.522v2.392a0.517,0.517,0,0,0,.512.523h33.975a0.518,0.518,0,0,0,.513-0.523v-2.392A0.518,0.518,0,0,0,424.487,833.563Zm-20.341-3.81h0.73a0.522,0.522,0,0,0,0-1.044h-0.73v-5.217h6.708v10.071h-6.708v-3.81Zm19.828,6.2H391.025v-1.347h32.949v1.347Z" transform="translate(-390 -805)"/>
</svg>
