<svg xmlns="http://www.w3.org/2000/svg" width="35" height="35" viewBox="0 0 35 35">
  <defs>
    <style>
      .cls-1 {
        fill: #9b1e23;
        fill-rule: evenodd;
      }
    </style>
  </defs>
  <path id="parking" class="cls-1" d="M412.285,1178.42a3.767,3.767,0,0,0-3.76-3.76H403.4a0.687,0.687,0,0,0-.683.69v6.15a0.679,0.679,0,0,0,.683.68h5.127A3.76,3.76,0,0,0,412.285,1178.42Zm-8.2-2.39h4.443a2.4,2.4,0,0,1,0,4.79h-4.443v-4.79Zm12.305,2.39a7.873,7.873,0,0,0-7.862-7.86H399.3a0.688,0.688,0,0,0-.684.69v20.5a0.688,0.688,0,0,0,.684.69h4.1a0.688,0.688,0,0,0,.684-0.69v-5.47h4.443A7.866,7.866,0,0,0,416.387,1178.42Zm-12.989,6.5a0.679,0.679,0,0,0-.683.68v5.47H399.98v-19.14h8.545a6.5,6.5,0,1,1,0,12.99H403.4Zm-10.664,12.71a1.365,1.365,0,0,1-1.367-1.36v-29.54a1.365,1.365,0,0,1,1.367-1.36h29.532a1.365,1.365,0,0,1,1.367,1.36v29.54a1.365,1.365,0,0,1-1.367,1.36H392.734Zm29.532,1.37a2.739,2.739,0,0,0,2.734-2.73v-29.54a2.739,2.739,0,0,0-2.734-2.73H392.734a2.739,2.739,0,0,0-2.734,2.73v29.54a2.739,2.739,0,0,0,2.734,2.73h29.532Z" transform="translate(-390 -1164)"/>
</svg>
