<svg xmlns="http://www.w3.org/2000/svg" width="35" height="35" viewBox="0 0 35 35">
  <defs>
    <style>
      .cls-1 {
        fill: #9b1e23;
        fill-rule: evenodd;
      }
    </style>
  </defs>
  <path id="temples" class="cls-1" d="M407.5,1321.8a2.275,2.275,0,1,0-2.278-2.27,2.278,2.278,0,0,0,2.278,2.27h0Zm0-3.52a1.25,1.25,0,1,1-1.252,1.25,1.252,1.252,0,0,1,1.252-1.25h0Zm15.933,7.08-8.607-4.98v-1.08c0-.03,0-0.06,0-0.09a0.733,0.733,0,0,0-.273-0.64c-0.015-.01-0.031-0.03-0.048-0.04l-6.314-4.95c-0.052-.05-0.112-0.1-0.181-0.16v-2.9h1.242a0.515,0.515,0,0,0,0-1.03H408.01v-0.98a0.513,0.513,0,0,0-1.026,0v0.98h-1.242a0.515,0.515,0,0,0,0,1.03h1.242v2.9c-0.069.06-.129,0.11-0.181,0.16l-6.314,4.95c-0.017.01-.033,0.03-0.048,0.04a0.733,0.733,0,0,0-.273.64c0,0.03,0,.06,0,0.09v1.08l-8.6,4.98a1.717,1.717,0,0,0-.151,3.4v5.8a0.513,0.513,0,0,0,1.026,0v-5.77h7.728v13.18h-7.728v-5.08a0.513,0.513,0,0,0-1.026,0v5.21a0.9,0.9,0,0,0,.895.9h30.376a0.9,0.9,0,0,0,.895-0.9v-13.34a1.716,1.716,0,0,0-.152-3.4h0Zm-8.607-3.8,6.549,3.8h-5.526a1.661,1.661,0,0,0-1.023-2.22v-1.58Zm-7.363-7.19,0.037-.03,0.036,0.03,6.264,4.91v3.78H401.2v-3.78Zm-7.289,7.19v1.53a1.669,1.669,0,0,0-1.192,2.27h-5.354Zm0,6.2h-8.453a0.69,0.69,0,1,1,0-1.38h8.453v1.38h0Zm10.76,14.21h-6.864v-1.36h6.864v1.36h0Zm-6-2.38v-2.45a2.575,2.575,0,0,1,2.052-2.51v4.96h-2.052Zm3.078,0v-4.96a2.575,2.575,0,0,1,2.052,2.51v2.45h-2.052Zm6.3-14.23h-5.737a0.51,0.51,0,1,0,0,1.02H413.8v15.59h-1.84v-1.4a0.975,0.975,0,0,0-.867-0.97v-2.46a3.591,3.591,0,0,0-7.182,0v2.46a0.975,0.975,0,0,0-.867.97v1.4H401.2v-15.59H406.2a0.51,0.51,0,1,0,0-1.02h-5.688a0.64,0.64,0,0,1,0-1.28h13.8a0.64,0.64,0,0,1,0,1.28h0Zm8.246,16.61h-7.733v-13.18h7.733v13.18Zm0.724-14.21h-8.453v-1.38h8.454a0.69,0.69,0,1,1,0,1.38h0Zm-25.717,7.86a0.668,0.668,0,0,0,.665-0.67v-2.01a1.922,1.922,0,0,0-3.843,0v2.01a0.669,0.669,0,0,0,.666.67h2.512Zm-2.152-2.68a0.9,0.9,0,1,1,1.79,0v1.65h-1.79v-1.65Zm22.026,2.68h2.511a0.668,0.668,0,0,0,.665-0.67v-2.01a1.922,1.922,0,0,0-3.843,0v2.01A0.669,0.669,0,0,0,417.437,1335.62Zm0.36-2.68a0.895,0.895,0,1,1,1.789,0v1.65H417.8v-1.65Zm-12.221-3.35v2.01a0.668,0.668,0,0,0,.664.67h2.512a0.669,0.669,0,0,0,.666-0.67v-2.01a1.921,1.921,0,0,0-3.842,0h0Zm2.816,0v1.65H406.6v-1.65A0.9,0.9,0,0,1,408.392,1329.59Z" transform="translate(-390 -1308)"/>
</svg>
