<svg version="1.1" id="підтримати" xmlns="http://www.w3.org/2000/svg" xmlns:xlink="http://www.w3.org/1999/xlink"
	 x="0px" y="0px" viewBox="0 0 457 140" style="enable-background:new 0 0 457 140;" xml:space="preserve">
<style type="text/css">
	.st0{fill:#9B1E23;}
	.st1{fill:#FFFFFF;}
</style>
<rect width="457" height="140"/>
<path class="st0" d="M218.2,49.9c-11,0-19.9,8.9-19.9,19.9s8.9,19.9,19.9,19.9c6.7,0,12.9-3.4,16.5-8.9l16.5,11
	c-12.2,18.2-36.9,23.2-55.3,11s-23-36.9-10.8-55s36.9-23.2,55.3-11c4.3,2.9,8.1,6.7,11,11l-16.8,11
	C231.1,53.2,224.9,49.9,218.2,49.9 M258.1,43.2v53.1l19.9,13.2V30L258.1,43.2z"/>
<path id="підтримати_нас" class="st1" d="M122.2,67.2h4.9v11.2h4.6V63h-14v15.4h4.6L122.2,67.2L122.2,67.2z
	 M139.6,78.4V63H135v15.4H139.6L139.6,78.4z M147.1,78.4h8v3.7h4.6v-7.9h-2.2V63h-12.2v7.6c0,2.1-0.3,3.3-0.9,3.7h-1.8v7.9h4.6
	L147.1,78.4L147.1,78.4z M149.3,74.3c0.4-1.2,0.6-2.5,0.6-3.8v-3.2h3.1v7L149.3,74.3L149.3,74.3z M165.2,67.2v11.2h4.6V67.2h4V63
	h-12.6v4.2H165.2L165.2,67.2z M181.4,74.1h2.6c1.6,0.1,3.1-0.5,4.3-1.6c1.1-1,1.8-2.5,1.7-4c0-1.5-0.6-3-1.7-4
	c-1.2-1.1-2.7-1.6-4.3-1.6h-7.2v15.4h4.6V74.1L181.4,74.1z M184.1,67.2c0.8,0,1.3,0.7,1.3,1.4c0,0.7-0.6,1.3-1.3,1.3h-2.6v-2.8
	H184.1z M197.3,78.4l5.4-7.7v7.7h4.6V63H203l-5.4,7.8V63h-4.6v15.4H197.3z M215,78.4v-7l3,5.6h3l3-5.6v7h4.4V63H224l-4.5,8l-4.5-8
	h-4.4v15.4H215z M235.9,78.4l0.8-2h5.3l0.8,2h4.8L241.3,63h-3.8l-6.3,15.4H235.9L235.9,78.4z M239.4,69.6l1.1,2.9h-2.3L239.4,69.6z
	 M252.1,67.2v11.2h4.6V67.2h4V63h-12.6v4.2H252.1L252.1,67.2z M268,78.4l5.4-7.7v7.7h4.6V63h-4.3l-5.4,7.8V63h-4.6v15.4H268
	L268,78.4z M292.9,78.4v-5.7h4.9v5.7h4.6V63h-4.6v5.5h-4.9V63h-4.6v15.4H292.9z M309.9,78.4l0.8-2h5.3l0.8,2h4.8L315.2,63h-3.8
	l-6.3,15.4H309.9L309.9,78.4z M313.3,69.6l1.1,2.9h-2.3L313.3,69.6z M331,62.8c-2.2-0.1-4.3,0.8-5.8,2.3c-3.1,3.1-3.1,8.1,0,11.2
	c0,0,0,0,0,0c1.6,1.5,3.7,2.3,5.8,2.3c1.6,0,3.2-0.4,4.6-1.3c1.3-0.8,2.3-2,3-3.4l-4.4-1.6c-0.6,1.2-1.8,1.9-3.2,1.9
	c-0.9,0-1.8-0.3-2.5-1c-0.6-0.7-1-1.6-1-2.6c0-0.9,0.3-1.8,1-2.5c0.6-0.7,1.5-1.1,2.4-1c1.3,0,2.6,0.7,3.2,1.9l4.4-1.6
	c-0.6-1.4-1.7-2.6-3-3.3C334.2,63.2,332.6,62.8,331,62.8L331,62.8z"/>
</svg>
