<svg xmlns="http://www.w3.org/2000/svg" width="30" height="40" viewBox="0 0 30 40">
  <path id="ГКЦ" class="cls-1" fill="#9b1e22" fill-rule="evenodd" d="M400.737,1022.6h23.684V1005h-1.579v1.6h-4.737V995.4l0,0a0.8,0.8,0,0,0-.367-0.674l-5.945-3.764V988.2h1.579v-1.6h-1.579V985H410.21v1.6h-1.578v1.6h1.578v2.757l-5.944,3.764a0.8,0.8,0,0,0-.367.674l0,0v11.2h-4.737V1005h-1.579v17.6h3.158Zm8.259-6.72c0-1.47.731-2.32,2-2.32a2.1,2.1,0,0,1,2,2.32c0,0.06,0,3.29-.007,5.12H409C409,1019.17,409,1015.94,409,1015.88Zm5.58,5.12c0-1.83.007-5.06,0.007-5.12a3.678,3.678,0,0,0-3.583-3.92c-2.177,0-3.583,1.54-3.583,3.92,0,0.06.005,3.29,0.007,5.12h-1.95v-12.8h11.052V1021h-1.95Zm8.266-12.8V1021h-1.579v-3.2h-1.579v3.2h-1.579v-12.8h4.737ZM411,992.343l3.563,2.257h-7.126Zm-5.526,3.857h11.052v10.4H405.474V996.2Zm-1.579,12V1021h-1.579v-3.2h-1.579v3.2h-1.579v-12.8H403.9Zm-3.158,2.4h1.579v4.8h-1.579v-4.8Zm18.947,0h1.579v4.8h-1.579v-4.8ZM396,1023.4h30v1.6H396v-1.6Zm15-25.6a3.6,3.6,0,1,0,3.553,3.6A3.581,3.581,0,0,0,411,997.8Zm0,5.6a2,2,0,1,1,1.974-2A1.991,1.991,0,0,1,411,1003.4Z" transform="translate(-396 -985)"/>
</svg>
