<svg xmlns="http://www.w3.org/2000/svg" width="21" height="17" viewBox="0 0 21 17">
  <defs>
    <style>
      .cls-1 {
        fill: #9b1e22;
        fill-rule: evenodd;
      }
    </style>
  </defs>
  <path id="twitter" class="cls-1" d="M1352.84,138.236c0.01,0.186.01,0.373,0.01,0.558a12.255,12.255,0,0,1-18.85,10.28,8.942,8.942,0,0,0,1.04.053,8.631,8.631,0,0,0,5.34-1.833,4.3,4.3,0,0,1-4.02-2.975,5.311,5.311,0,0,0,.81.067,4.521,4.521,0,0,0,1.13-.146,4.3,4.3,0,0,1-3.45-4.211v-0.053a4.379,4.379,0,0,0,1.95.545,4.283,4.283,0,0,1-1.92-3.573,4.185,4.185,0,0,1,.59-2.165,12.221,12.221,0,0,0,8.87,4.489,4.589,4.589,0,0,1-.11-0.982,4.312,4.312,0,0,1,7.45-2.936,8.46,8.46,0,0,0,2.73-1.035,4.293,4.293,0,0,1-1.89,2.364,8.637,8.637,0,0,0,2.48-.664,9.317,9.317,0,0,1-2.16,2.217h0Z" transform="translate(-1334 -134)"/>
</svg>
