<svg xmlns="http://www.w3.org/2000/svg" width="19" height="19" viewBox="0 0 19 19">
  <defs>
    <style>
      .cls-1 {
        fill: #9b1e22;
        fill-rule: evenodd;
      }
    </style>
  </defs>
  <path id="youtube" class="cls-1" d="M1416.92,140.214l4.04,2.294-4.04,2.295v-4.589Zm11.08-5.178v14.928a2.036,2.036,0,0,1-2.04,2.036h-14.92a2.036,2.036,0,0,1-2.04-2.036V135.036a2.036,2.036,0,0,1,2.04-2.036h14.92A2.036,2.036,0,0,1,1428,135.036Zm-1.78,7.476a20.518,20.518,0,0,0-.32-3.74,1.937,1.937,0,0,0-1.37-1.374,55.761,55.761,0,0,0-12.06,0,1.937,1.937,0,0,0-1.37,1.374,22.021,22.021,0,0,0,0,7.481,1.91,1.91,0,0,0,1.37,1.353,46.169,46.169,0,0,0,6.03.322,45.608,45.608,0,0,0,6.03-.326,1.91,1.91,0,0,0,1.37-1.353,20.467,20.467,0,0,0,.32-3.737h0Z" transform="translate(-1409 -133)"/>
</svg>
