<svg version="1.1" id="Слой_1" xmlns="http://www.w3.org/2000/svg" x="0px" y="0px"
	 viewBox="0 0 52.2 56" style="enable-background:new 0 0 52.2 56;" xml:space="preserve">
	<g>
		<path class="st0" fill="#FFFFFF" d="M31.8,55h11.9V33.9h5.9L28.5,15V9.5H32V4.7h-3.4V1h-4.8v3.7h-3.7v4.8h3.7v5.3l-21.1,19h5.5V55H31.8z"/>
		<path class="st1" fill="#9B1E22" d="M44.7,56H7.1V34.9H0l22.7-20.5v-3.9H19V3.7h3.7V0h6.8v3.7H33v6.8h-3.4v4.1l22.7,20.3h-7.5V56H44.7z M9.1,54
			h33.6V32.9H47L27.5,15.5v-7H31V5.7h-3.4V2h-2.8v3.7h-3.7v2.8h3.7v6.8L5.2,32.9h3.9V54z"/>
	</g>
</svg>
