<svg id="logo" xmlns="http://www.w3.org/2000/svg" width="534.281" height="88" viewBox="0 0 534.281 88">
  <defs>
    <style>
      .cls-1, .cls-2, .cls-3 {
        fill-rule: evenodd;
      }

      .cls-2 {
        fill: #131313;
      }

      .cls-3 {
        fill: #d9b068;
      }
    </style>
  </defs>
  <path id="статки_церкви" data-name="статки церкви" class="cls-1" d="M520.741,87.637a16.451,16.451,0,0,0-8.97-2.52,15.891,15.891,0,0,0-16.26,16.26,15.8,15.8,0,0,0,16.26,16.26,16.451,16.451,0,0,0,8.97-2.52,15.193,15.193,0,0,0,5.91-6.9l-5.04-1.5a10.573,10.573,0,0,1-3.99,4.29,11.022,11.022,0,0,1-5.85,1.59,10.676,10.676,0,0,1-7.86-3.18,11.151,11.151,0,0,1-3.18-8.04,10.821,10.821,0,0,1,3.18-7.98,10.449,10.449,0,0,1,7.86-3.24,11.027,11.027,0,0,1,5.85,1.59,10.575,10.575,0,0,1,3.99,4.29l5.04-1.5A15.2,15.2,0,0,0,520.741,87.637Zm25.83,29.34V90.637h11.7v-4.86h-28.44v4.86h11.7v26.34h5.04Zm18.3-27.18a16.038,16.038,0,0,0-4.38,11.58,16.247,16.247,0,0,0,4.38,11.64,14.62,14.62,0,0,0,10.98,4.62,14.316,14.316,0,0,0,11.4-5.1v4.44h5.04v-31.2h-5.04v4.44a15.257,15.257,0,0,0-22.38-.42h0Zm19.14,3.6a10.807,10.807,0,0,1,3.12,7.98,11.009,11.009,0,0,1-3.12,8.04,10.143,10.143,0,0,1-7.62,3.18,10.4,10.4,0,0,1-7.62-3.18,11.258,11.258,0,0,1-3.06-8.04,11.051,11.051,0,0,1,3.06-7.98,10.175,10.175,0,0,1,7.62-3.24,10.052,10.052,0,0,1,7.62,3.24h0Zm30.3,23.58V90.637h11.7v-4.86h-28.44v4.86h11.7v26.34h5.04Zm29.1-16.14,12.78-15.06h-6.18l-12.84,15.06,14.04,16.14h6.3Zm-12.12-15.06v31.2h5.04v-31.2h-5.04Zm55.2,31.2h5.04v-31.2h-4.26l-19.44,22.86V85.777h-5.04v31.2h4.26l19.44-22.74v22.74Zm58.619,0v9h5.04v-13.86h-5.76V85.777h-5.04v26.34h-17.76V85.777h-5.04v31.2h28.56Zm40.32-15.6a15.709,15.709,0,0,0-4.62-11.58,16.371,16.371,0,0,0-22.92,0,16.742,16.742,0,0,0,.12,23.22,16.466,16.466,0,0,0,11.88,4.62,16.982,16.982,0,0,0,8.25-2.04,15.267,15.267,0,0,0,5.91-5.64l-4.92-1.56a10.8,10.8,0,0,1-9.24,4.5,11.175,11.175,0,0,1-7.68-2.76,10.967,10.967,0,0,1-3.72-7.02h26.82q0.12-1.56.12-1.74h0Zm-23.22-9a10.289,10.289,0,0,1,7.02-2.58,10.676,10.676,0,0,1,7.2,2.58,11.138,11.138,0,0,1,3.78,6.66h-21.66A11.156,11.156,0,0,1,762.209,92.377Zm34.68,20.16a14.249,14.249,0,0,0,11.34,5.1,14.623,14.623,0,0,0,10.98-4.62,16.389,16.389,0,0,0,4.44-11.64,16.049,16.049,0,0,0-4.44-11.58,14.409,14.409,0,0,0-10.98-4.68,14.251,14.251,0,0,0-11.34,5.1v-4.44h-5.04v44.7h5.04v-17.94Zm18.42-19.14a10.811,10.811,0,0,1,3.12,7.98,11.013,11.013,0,0,1-3.12,8.04,10.145,10.145,0,0,1-7.62,3.18,10.393,10.393,0,0,1-7.62-3.18,11.258,11.258,0,0,1-3.06-8.04,11.051,11.051,0,0,1,3.06-7.98,10.173,10.173,0,0,1,7.62-3.24,10.053,10.053,0,0,1,7.62,3.24h0Zm27.359,7.44,12.78-15.06h-6.18l-12.84,15.06,14.04,16.14h6.3Zm-12.12-15.06v31.2h5.04v-31.2h-5.04Zm31.5,31.2h17.34a9.713,9.713,0,0,0,6.9-2.58,8.569,8.569,0,0,0,2.76-6.54,7.9,7.9,0,0,0-1.29-4.35,8.589,8.589,0,0,0-3.45-3.09,8.328,8.328,0,0,0,3.24-6.96c0-.08-0.081-0.5-0.24-1.26a7.579,7.579,0,0,0-3.21-4.65,10.214,10.214,0,0,0-5.97-1.77h-16.08v31.2Zm17.34-14.04a4.142,4.142,0,0,1,3.12,1.32,4.591,4.591,0,0,1,1.26,3.3,4.515,4.515,0,0,1-1.26,3.24,4.142,4.142,0,0,1-3.12,1.32h-12.3v-9.18h12.3Zm1.77-11.16a4.13,4.13,0,0,1,0,5.76,4.159,4.159,0,0,1-3.03,1.14h-11.04v-8.04h11.04A4.163,4.163,0,0,1,881.158,91.777Zm38.07,25.2h5.04v-31.2h-4.26l-19.44,22.86V85.777h-5.04v31.2h4.26l19.44-22.74v22.74Z" transform="translate(-390 -56)"/>
  <g>
    <path class="cls-2" d="M435.4,141.521A2.489,2.489,0,0,1,432.9,144H423.1a2.489,2.489,0,0,1-2.493-2.479V95.979c-1.015-.353,4.156,1.072,2.593.731v44.711H432.8V96.71c-1.564.34,3.608-1.084,2.593-.731v45.542ZM458,89.852a2.489,2.489,0,0,0,2.493-2.479v-9.75A2.489,2.489,0,0,0,458,75.145H435.4V58.478A2.489,2.489,0,0,0,432.9,56H423.1a2.488,2.488,0,0,0-2.493,2.478V75.145h-22.6a2.488,2.488,0,0,0-2.493,2.478v9.75a2.488,2.488,0,0,0,2.493,2.479h15.346c4.676,0-.3-2.56-3-2.57-0.631,0-.982,0-0.987-0.008H398.105V77.723h59.789v9.551H446.638c0.06,0.018-1.1,0-1.1,0l-2.923,2.459ZM423.2,58.578H432.8V75.145H423.2V58.578Z" transform="translate(-390 -56)"/>
    <path id="Shape_1_copy_3" data-name="Shape 1 copy 3" class="cls-3" d="M444.627,89.852l2.011-2.578a22,22,0,0,0,3.542-9.551s5.628-2.578.444-2.578H435.4l0.622,2.578a8.487,8.487,0,0,1-16.036,0l0.622-2.578H404.631c-3.325,0,1.188,2.578,1.188,2.578a22.018,22.018,0,0,0,3.543,9.551l2.011,2.578c0.424,0.469-6.506,0-6.506,0a34.466,34.466,0,0,1-1.193,6.727A23.017,23.017,0,0,1,402.52,99.7c-0.295.648-2.568,4.324-3.02,4.877a18.976,18.976,0,0,1-8.45,6.011,1.541,1.541,0,0,0-.982,1.923A6.807,6.807,0,0,0,398.994,117a4.832,4.832,0,0,0,3.726,1.741,4.774,4.774,0,0,0,2.926-.993c5.413-4.175,9.4-10.834,11.217-18.749,0.32-1.392.579-2.813,0.784-4.3a22.232,22.232,0,0,0,2.957,1.277L423.2,96.71a22.624,22.624,0,0,0,9.606,0l2.593-.731a22.261,22.261,0,0,0,2.957-1.276c0.2,1.486.463,2.907,0.784,4.3,1.82,7.915,5.8,14.574,11.217,18.749a4.771,4.771,0,0,0,2.925.993A4.834,4.834,0,0,0,457.006,117a6.807,6.807,0,0,0,8.926-4.488,1.542,1.542,0,0,0-.982-1.923h0c-5.882-2.028-10.719-7.4-12.624-14.01a34.5,34.5,0,0,1-1.193-6.729S444.2,90.321,444.627,89.852Z" transform="translate(-390 -56)"/>
    <path id="Shape_1_copy_4" data-name="Shape 1 copy 4" class="cls-2" d="M448.53,89.852a37.106,37.106,0,0,0,1.3,7.438,25.016,25.016,0,0,0,5.237,9.591,21.7,21.7,0,0,0,7.994,5.756,4.718,4.718,0,0,1-1.987,1.868h0a5.281,5.281,0,0,1-4.011-.218,1.3,1.3,0,0,0-1.515.389s-0.354.444-.517,0.65a2.226,2.226,0,0,1-3.09.387c-4.941-3.811-8.592-9.95-10.279-17.287a47.059,47.059,0,0,1-.886-5.189,22.488,22.488,0,0,0,2.512-2.027q0.7-.654,1.336-1.358l2.011-2.578a22,22,0,0,0,3.542-9.551s5.628-2.578.444-2.578H435.4l0.622,2.578a8.487,8.487,0,0,1-16.036,0l0.622-2.578H404.631c-3.325,0,1.188,2.578,1.188,2.578a22.018,22.018,0,0,0,3.543,9.551l2.011,2.578q0.636,0.7,1.336,1.358a22.44,22.44,0,0,0,2.512,2.027,47.551,47.551,0,0,1-.886,5.189c-1.688,7.337-5.338,13.476-10.279,17.287a2.226,2.226,0,0,1-3.088-.384c-0.165-.21-0.52-0.653-0.52-0.653a1.3,1.3,0,0,0-1.514-.389,5.279,5.279,0,0,1-4.012.217,4.713,4.713,0,0,1-1.986-1.867,21.753,21.753,0,0,0,8.577-6.431c0.452-.553,3.154-4.966,3.37-5.442a25.572,25.572,0,0,0,1.284-3.475,37.167,37.167,0,0,0,1.3-7.437h-2.6a34.466,34.466,0,0,1-1.193,6.727A23.017,23.017,0,0,1,402.52,99.7c-0.295.648-2.568,4.324-3.02,4.877a18.976,18.976,0,0,1-8.45,6.011,1.541,1.541,0,0,0-.982,1.923A6.807,6.807,0,0,0,398.994,117a4.832,4.832,0,0,0,3.726,1.741,4.774,4.774,0,0,0,2.926-.993c5.413-4.175,9.4-10.834,11.217-18.749,0.32-1.392.579-2.813,0.784-4.3a22.232,22.232,0,0,0,2.957,1.277L423.2,96.71a22.624,22.624,0,0,0,9.606,0l2.593-.731a22.261,22.261,0,0,0,2.957-1.276c0.2,1.486.463,2.907,0.784,4.3,1.82,7.915,5.8,14.574,11.217,18.749a4.771,4.771,0,0,0,2.925.993A4.834,4.834,0,0,0,457.006,117a6.807,6.807,0,0,0,8.926-4.488,1.542,1.542,0,0,0-.982-1.923h0c-5.882-2.028-10.719-7.4-12.624-14.01a34.5,34.5,0,0,1-1.193-6.729m-42.7-12.129h2.318c3.088,9.02,9.779,14.795,17.249,14.795a15.874,15.874,0,0,0,11.077-4.761,1.282,1.282,0,0,0,.029-1.823,1.3,1.3,0,0,0-1.833-.029A13.33,13.33,0,0,1,428,89.94c-6.111,0-11.665-4.739-14.494-12.217h3.771a11.078,11.078,0,0,0,21.445,0h3.77a25.176,25.176,0,0,1-1.759,3.714,1.295,1.295,0,0,0,2.245,1.29,28.1,28.1,0,0,0,2.269-5h2.319a19.773,19.773,0,0,1-39.133,0h0Z" transform="translate(-390 -56)"/>
  </g>
</svg>
