<svg xmlns="http://www.w3.org/2000/svg" width="40" height="40" viewBox="0 0 40 40">
  <path id="РПЦ" fill="#9b1e22" fill-rule="evenodd" class="cls-1" d="M391.667,268.762v18.789h36.666V268.725a0.562,0.562,0,0,0,.2-0.151,2.69,2.69,0,0,0,.874-1.831c0-2.213-2.441-3.644-3.579-4.19v-1.941h-1.666v1.913c-1.106.544-3.659,2.033-3.659,4.218a2.485,2.485,0,0,0,.923,1.869,0.806,0.806,0,0,0,.235.151v1.645h-5v-3.185a4.3,4.3,0,0,0,1.635-3.23c0-4.512-5.681-7.354-7.469-8.138v-2.59H412.5v-1.633h-1.667V250h-1.666v1.632H407.5v1.633h1.667v2.607c-1.759.826-7.469,3.84-7.469,8.12a4.3,4.3,0,0,0,1.635,3.231v3.185h-5v-1.684a0.571,0.571,0,0,0,.2-0.15,2.686,2.686,0,0,0,.875-1.831c0-2.213-2.441-3.644-3.579-4.19v-1.941h-1.666v1.913c-1.107.544-3.659,2.033-3.659,4.218a2.484,2.484,0,0,0,.922,1.868A0.8,0.8,0,0,0,391.667,268.762Zm16.218,9.478c0-1.5.771-2.358,2.115-2.358a2.168,2.168,0,0,1,2.115,2.358c0,0.069,0,5.235-.008,7.678h-4.214C407.891,283.476,407.885,278.309,407.885,278.24Zm5.889,7.678c0-2.444.008-7.609,0.008-7.678A3.8,3.8,0,0,0,410,274.25a3.644,3.644,0,0,0-3.782,3.99c0,0.069.006,5.235,0.009,7.678H405V272.041h10v13.877h-1.226Zm11.2-21.962c0.964,0.441,2.771,1.525,2.771,2.787a0.89,0.89,0,0,1-.165.4h-5.26a0.707,0.707,0,0,1-.145-0.4C422.175,265.566,424,264.431,424.975,263.956Zm-1.642,4.819h1.584c0.733,0,1.3.054,1.75,0.053v2.4h-0.834v4.082h0.834v10.612h-3.334V268.775Zm-1.666,3.266v13.877h-5V272.041h5Zm-14-7.243a1.514,1.514,0,0,1-.563-1.074,4.508,4.508,0,0,1,1.81-3.252,5.473,5.473,0,0,0,1.525-1.875,3.466,3.466,0,0,1-.665,2.378,4.81,4.81,0,0,0-.859,3.075,3.835,3.835,0,0,0,.585,1.461h-0.331A1.637,1.637,0,0,1,407.665,264.8Zm2.884-1.041a3.742,3.742,0,0,1,.766-2.037,5.927,5.927,0,0,0,.872-2.706,6.582,6.582,0,0,1,.3,2.762,4.67,4.67,0,0,0,.89,3.734h-0.04C411.667,265.51,410.718,264.668,410.549,263.757Zm6.086,0.236a2.4,2.4,0,0,1-.578,1.5,2.475,2.475,0,0,1-1.7-1.545,4.839,4.839,0,0,1-.2-2.123,12.149,12.149,0,0,0-.069-2.125C415.461,260.831,416.635,262.285,416.635,263.993Zm-7.649-6.2a3.485,3.485,0,0,1-1.146,1.469,6.061,6.061,0,0,0-2.293,4.257,2.8,2.8,0,0,0,.586,1.99h-2.176a2.4,2.4,0,0,1-.591-1.518C403.365,261.37,406.7,259.017,408.986,257.8ZM405,267.143h10v3.265H405v-3.265Zm-1.667,4.9v13.877h-5V272.041h5Zm-6.666-1.633v15.51h-3.334V275.306h0.834v-4.082h-0.834v-2.449h1.584c0.733,0,1.3.054,1.75,0.053v1.58Zm-1.692-6.452c0.992,0.45,2.771,1.52,2.771,2.787a0.9,0.9,0,0,1-.165.4H392.32a0.709,0.709,0,0,1-.145-0.4C392.175,265.566,394,264.431,394.975,263.956ZM400,273.673h1.667v4.082H400v-4.082Zm18.333,0H420v4.082h-1.667v-4.082ZM390,288.367h40V290H390v-1.633Z" transform="translate(-390 -250)"/>
</svg>
