<?xml version="1.0" encoding="utf-8"?>
<!-- Generator: Adobe Illustrator 22.1.0, SVG Export Plug-In . SVG Version: 6.00 Build 0)  -->
<svg version="1.1" id="Слой_1" xmlns="http://www.w3.org/2000/svg" xmlns:xlink="http://www.w3.org/1999/xlink" x="0px" y="0px"
	 viewBox="0 0 140.3 33.3" style="enable-background:new 0 0 140.3 33.3;" xml:space="preserve">
<style type="text/css">
	.st0{fill:#9B1E23;}
</style>
<g id="Слой_2_1_">
	<g id="Слой_1-2">
		<path class="st0" d="M16.6,8.3c-4.6,0-8.3,3.7-8.3,8.3c0,4.6,3.7,8.3,8.3,8.3c2.8,0,5.4-1.4,6.9-3.7l6.9,4.6
			c-5.1,7.6-15.4,9.7-23.1,4.6S-2.3,15,2.8,7.4s15.4-9.7,23.1-4.6c1.8,1.2,3.4,2.8,4.6,4.6L23.5,12C22,9.7,19.4,8.3,16.6,8.3
			 M33.3,5.5v22.2l8.3,5.5V0L33.3,5.5z"/>
		<g>
			<path d="M92,12.2h-1.3V3h-8l-2.4,9.2H79V15l13,0V12.2z M87.5,12.2h-4l1.7-6.4h2.3V12.2z"/>
			<polygon points="77.4,3 74.2,3 74.2,15 77.4,15 			"/>
			<rect x="50" y="18.2" width="3.2" height="12.1"/>
			<polygon points="63.1,22.6 58.7,22.6 58.7,18.2 55.6,18.2 55.6,30.3 58.7,30.3 58.7,25.4 63.1,25.4 63.1,30.3 66.3,30.3 
				66.3,18.2 63.1,18.2 			"/>
			<path d="M59.9,12.5l-2.6-1.7c-0.2,0.3-0.5,0.6-0.9,0.9c-1.4,1-3.4,0.6-4.3-0.9S51.5,7.4,53,6.4c1.4-1,3.4-0.6,4.3,0.9l2.6-1.8
				c-1.2-1.7-3.1-2.8-5.2-2.8c-2.1,0-4,1-5.2,2.8c-1.9,2.9-1.1,6.8,1.7,8.7C54.1,16.1,58,15.4,59.9,12.5z"/>
			<polygon points="68.7,15 71.9,15 71.8,3 63.8,3 60.6,15 63.9,15 66.4,5.8 68.7,5.8 			"/>
			<path d="M81,20.4c-0.5-0.5-1.1-0.8-1.8-1c-0.7-0.2-1.5-0.4-2.3-0.4v-1.4h-3.1V19c-0.8,0-1.6,0.1-2.3,0.4c-0.7,0.2-1.3,0.6-1.8,1
				c-0.5,0.4-0.9,1-1.2,1.6c-0.3,0.7-0.5,1.4-0.5,2.1c0,0.8,0.2,1.5,0.5,2.2c0.3,0.6,0.7,1.2,1.2,1.6c0.5,0.4,1.1,0.8,1.8,1
				c0.7,0.2,1.5,0.4,2.3,0.4v1.5h3.1v-1.5c0.8,0,1.6-0.1,2.3-0.4c0.7-0.2,1.3-0.6,1.8-1c0.5-0.5,0.9-1,1.2-1.7
				c0.3-0.7,0.4-1.4,0.4-2.2c0-0.7-0.1-1.5-0.4-2.2C82,21.4,81.6,20.8,81,20.4z M73.8,26.7c-0.7,0-1.4-0.2-2-0.6
				c-0.5-0.5-0.8-1.2-0.7-1.9c0-0.7,0.2-1.4,0.7-1.9c0.5-0.5,1.3-0.7,2-0.7V26.7z M78.9,26.1c-0.6,0.5-1.3,0.7-2,0.6v-5.1
				c0.7,0,1.5,0.2,2,0.7c0.5,0.5,0.7,1.2,0.7,1.9C79.7,24.9,79.4,25.6,78.9,26.1z"/>
			<polygon points="105.2,3 105.2,5.8 108.9,5.8 108.9,15.1 112,15.1 112,5.8 115.6,5.8 115.6,3 			"/>
			<path d="M124.7,8.6c0.5-0.5,0.8-1.3,0.7-2c0-0.5-0.1-1-0.3-1.5c-0.2-0.4-0.5-0.8-0.9-1.1c-0.4-0.3-0.8-0.6-1.3-0.7
				c-0.5-0.2-1.1-0.3-1.6-0.3H117v12h5.7c0.6,0,1.1-0.1,1.6-0.3c0.5-0.2,0.9-0.4,1.3-0.7c0.4-0.3,0.7-0.7,0.9-1.1
				c0.2-0.5,0.3-1,0.3-1.5c0-0.6-0.2-1.3-0.5-1.8C125.8,9.2,125.3,8.8,124.7,8.6z M120,5.6h1.1c0.3,0,0.6,0.1,0.9,0.3
				c0.2,0.2,0.3,0.5,0.3,0.8c0,0.3-0.1,0.6-0.3,0.8c-0.2,0.2-0.6,0.3-0.9,0.3H120V5.6z M123.3,12.1c-0.3,0.2-0.6,0.3-0.9,0.3H120
				v-2.1l2.4,0c0.3,0,0.6,0.1,0.9,0.3c0.2,0.2,0.4,0.5,0.3,0.8C123.6,11.6,123.5,11.9,123.3,12.1z"/>
			<path d="M134.1,2.8c-3.4,0-6.2,2.8-6.3,6.2c0,0,0,0,0,0c0,3.5,2.8,6.3,6.2,6.3c3.5,0,6.3-2.8,6.3-6.3
				C140.3,5.6,137.5,2.8,134.1,2.8z M134.2,12.1c-1.7,0-3.1-1.3-3.2-3.1c0,0,0,0,0-0.1c0-1.7,1.4-3.1,3.1-3.1l0,0
				c1.7,0,3.1,1.3,3.2,3.1C137.2,10.7,135.9,12.1,134.2,12.1z"/>
			<path d="M99.1,5.9c1,0,2,0.5,2.6,1.4l2.6-1.8c-1.2-1.7-3.1-2.8-5.2-2.8c-2.1,0-4,1-5.2,2.8c-1.9,2.9-1.1,6.8,1.7,8.7
				c2.9,1.9,6.8,1.1,8.7-1.7l-2.6-1.7c-0.6,0.9-1.5,1.4-2.6,1.4c-1.7,0-3.1-1.4-3.1-3.1C96,7.3,97.4,5.9,99.1,5.9z"/>
			<path d="M90.1,18L90.1,18c-3.4,0-6.2,2.8-6.3,6.3c0,3.5,2.8,6.3,6.3,6.3s6.3-2.8,6.3-6.3S93.6,18,90.1,18z M90.1,27.3
				c-1.7,0-3.1-1.4-3.1-3.1c0-1.7,1.4-3.1,3.1-3.1c0,0,0,0,0,0l0,0c1.7,0,3.1,1.4,3.1,3.1S91.8,27.3,90.1,27.3z"/>
		</g>
	</g>
</g>
</svg>
