<svg xmlns="http://www.w3.org/2000/svg" width="29" height="40" viewBox="0 0 29 40">
  <path id="УПЦ" fill="#9b1e22"  fill-rule="evenodd" class="cls-1" d="M407.278,637.775h1.611v4.082h-1.611v-4.082Zm-6.445,5.715h1.611v4.081h-1.611V643.49Zm11.278-5.715h1.611v4.082h-1.611v-4.082Zm6.445,5.715h1.611v4.081h-1.611V643.49Zm4.84,13.877c0.028-3.2.131-14.779,0.131-14.837a3.757,3.757,0,0,0-3.36-4.027v-2.36h-1.611v2.42a4.367,4.367,0,0,0-1.612.761v-3.1a4.347,4.347,0,0,0,1.581-3.231c0-4.511-5.492-7.353-7.22-8.137v-2.591h1.612v-1.633h-1.612V619h-1.611v1.632h-1.611v1.633h1.611v2.607c-1.7.826-7.219,3.84-7.219,8.12a4.352,4.352,0,0,0,1.581,3.231v3.028a4.287,4.287,0,0,0-1.612-.715v-2.393h-1.611v2.369a3.806,3.806,0,0,0-3.329,4.018c0,0.057.08,11.64,0.1,14.837H396V659h29v-1.633h-1.6Zm-8.081,0h-1.167c0-2.943.008-10.055,0.008-10.127a3.744,3.744,0,0,0-3.655-3.99c-2.221,0-3.656,1.566-3.656,3.99,0,0.072.006,7.184,0.008,10.127h-1.132l-0.054-21.224h9.666Zm-6.86-10.127c0-1.5.746-2.358,2.045-2.358a2.136,2.136,0,0,1,2.044,2.358c0,0.072,0,7.184-.008,10.127h-4.072C408.461,654.425,408.455,647.312,408.455,647.24Zm2.055-20.956c1.307,0.582,6.4,3.085,6.4,6.708a2.439,2.439,0,0,1-.571,1.517H404.657a2.444,2.444,0,0,1-.571-1.517C404.086,629.939,408.464,627.246,410.51,626.284Zm-11.484,31.083c0-3.208-.008-14.777-0.008-14.837a2.3,2.3,0,0,1,2.55-2.452,2.527,2.527,0,0,1,2.488,1.932v15.357h-5.03Zm20.335,0h-2.417V642.576a2.5,2.5,0,0,1,2.55-2.5,2.3,2.3,0,0,1,2.55,2.452c0,0.06-.007,11.629-0.009,14.837h-2.674Z" transform="translate(-396 -619)"/>
</svg>
